<?xml version="1.0" encoding="utf-8"?>
<!-- Generator: Adobe Illustrator 17.1.0, SVG Export Plug-In . SVG Version: 6.00 Build 0)  -->
<!DOCTYPE svg PUBLIC "-//W3C//DTD SVG 1.1//EN" "http://www.w3.org/Graphics/SVG/1.1/DTD/svg11.dtd">
<svg version="1.1" id="Layer_1" xmlns="http://www.w3.org/2000/svg" xmlns:xlink="http://www.w3.org/1999/xlink" x="0px" y="0px"
	 viewBox="0 0 612 916.9" enable-background="new 0 0 612 916.9" xml:space="preserve">
<g>
	<g>
		<path d="M54.5,192.4l-0.6-0.6c-6.4,0-12.8-1.7-19.7-4.6c-7-3.5-12.8-8.7-18.5-16.2l-4.6-8.7l-1.2-5.8l-1.2-1.7L8.1,149l0.6-28.4
			C11.6,107.8,18,93.9,27.8,80c10.4-14.5,22.6-26.1,37.1-35.4c5.2-3.5,10.4-6.4,15.6-8.1c2.3-1.2,5.2-1.7,7.5-2.9s5.2-2.3,8.1-3.5
			l4.6-0.6l4.6-1.2l4.1-0.6l11.6-1.2c2.9,0,5.8,0.6,8.7,1.2c3.5,0,6.4,0.6,9.3,1.2c5.8,1.2,11.6,3.5,17.4,8.7l4.6,1.2l4.1-3.5h2.9
			L156.5,73l-4.1,7h-2.9V57.3l-0.6-4.6c-0.6-2.9-2.3-5.8-4.6-8.7c-2.3-3.5-5.2-5.8-8.1-8.1L131,33l-15.1-0.6l-4.6,0.6l-2.9,1.2
			l-4.1,0.6c-8.7,2.9-16.8,7.5-24.9,14.5c-8.1,6.4-15.6,13.9-22,22c-3.5,4.1-6.4,8.1-9.3,12.8c-2.9,4.1-5.2,8.7-7.5,12.8
			c-4.6,8.7-8.1,16.8-9.9,24.3c-1.7,6.4-2.3,12.2-2.3,18c0,5.2-0.6,11-1.2,16.2l1.7,5.2v3.5c1.2,4.1,3.5,8.1,7.5,12.2
			c4.1,4.6,8.1,7.5,12.8,8.7l19.7,2.3l7-0.6l4.6-1.2l18.5-9.3c5.2-3.5,9.9-7.5,13.9-12.2c1.7-2.3,3.5-5.2,5.2-7.5s3.5-4.6,4.6-7
			c3.5-9.9,5.2-19.1,5.2-26.7l-1.2-6.4l-4.1-7l-9.9-7l-10.4-1.2l-4.1,1.2l-10.4,6.4l-6.4,7.5l-0.6,3.5l1.7,5.2l5.2,1.2l7,2.3v5.2
			l-2.3,6.4l-5.8,2.3l-5.2,1.2l-9.3-5.2l-1.2-3.5l-1.7-2.3V124l1.2-2.9l0.6-2.9c1.7-3.5,4.6-7.5,8.1-11.6s7-6.4,11-7l5.8-1.7
			l5.2-0.6c0.6,0,1.2,0,1.7,0c0.6,0,1.2,0,2.3,0c3.5,0,8.1,0.6,12.8,2.3c5.8,1.7,10.4,5.8,14.5,12.2l2.9,7l0.6,8.1l-3.5,19.7
			l-1.2,2.3c-4.6,9.3-11,18-20.3,26.1s-18,12.8-25.5,14.5l-4.6,1.2l-3.5,0.6l-6.4,0.6L57.4,193L54.5,192.4z"/>
	</g>
	<g>
		<path d="M176.2,115.9v-2.3h8.7l24.3-72.4h4.1l22.6,72.4h7.5v2.3h-27.8v-2.3h9.3l-7.5-24.3H196l-8.1,24.3h9.3v2.3H176.2z
			 M216.2,85.7l-9.3-30.1l0,0L197,85.7H216.2z"/>
	</g>
	<g>
		<path d="M318.2,95h19.1l-23.8,113.6h-19.7L270.1,95h19.1l13.9,78.8h0.6L318.2,95z"/>
	</g>
	<g>
		<path d="M391.2,4.6c8.7,0,16.2,7,16.2,16.2c0,8.7-7,16.2-16.2,16.2c-8.7,0-16.2-7-16.2-16.2C375,12.1,381.9,4.6,391.2,4.6z
			 M377.3,49.2h27.8V139h-27.8V49.2z"/>
	</g>
	<g>
		<path d="M475.8,153v-1.7c5.8,0,7.5-0.6,9.9-4.1c1.7-2.9,2.3-4.6,2.3-6.4c0-2.3-1.7-6.4-2.9-8.7L481,124h-30.7l-3.5,8.7
			c-1.2,2.9-2.9,7-2.9,8.7c0,1.2,0,4.1,2.3,7c2.3,3.5,4.1,3.5,9.3,3.5v1.7H426v-1.7c1.7,0,4.1,0,5.8-1.2c5.8-4.1,11-11.6,12.8-15.1
			L473,74.2h0.6l27.8,62.6c2.9,6.4,7.5,13.3,10.4,14.5c1.7,0.6,2.3,1.2,5.8,1.2v1.7h-41.7L475.8,153L475.8,153z M442.2,151.2
			c0-1.7-0.6-2.9-0.6-4.6s0-4.1,0.6-5.8l0,0c-2.3,3.5-5.2,7-8.7,9.3v1.2L442.2,151.2L442.2,151.2z M453.2,119.4l-1.7,3.5H481
			l-1.7-3.5H453.2z M453.8,118.2h24.9l-12.2-27.8L453.8,118.2z M505.9,151.2L505.9,151.2c-4.6-3.5-7.5-8.1-10.4-13.9l-24.9-56.2H470
			l-1.7,5.2c-0.6,1.2-1.2,1.7-1.2,2.3s0.6,1.2,1.2,2.9l18.5,41.1c1.7,3.5,2.9,5.8,2.9,8.7c0,4.1-2.3,7.5-5.2,9.3l0,0h21.4
			L505.9,151.2L505.9,151.2z"/>
	</g>
	<g>
		<path d="M562.2,129.8h-19.7V16.2h27.2c22,0,33,9.3,33,33.6c0,18-7,25.5-13.9,28.4l16.8,51.6h-19.7l-13.9-47
			c-2.3,0.6-6.4,0.6-9.9,0.6v46.4H562.2z M562.2,67.2h7c10.4,0,14.5-4.1,14.5-17.4s-4.1-17.4-14.5-17.4h-7V67.2z"/>
	</g>
</g>
<text transform="matrix(1 0 0 1 612.0941 138.0164)" font-family="'MrsEavesSmallCaps'" font-size="50.9044"> </text>
<g>
	<g>
		<path d="M119.4,360c-8,0-14.4-6.6-14.4-14.9c0-8.1,6.4-14.9,14.4-14.9c3.1,0,6.5,1.7,8.4,4.3c0.4-0.5,0.9-2.1,1.2-3.2h1.2v11h-1.3
			c-1.2-6-4.7-9.7-9.6-9.7c-7.2,0-9.4,7-9.4,12.5c0,5.4,2.3,12.5,9.4,12.5c3.2,0,8.1-2,8.1-5.4c0-2.5-2.4-3.9-5.4-3.9V347H136v1.3
			c-4.3,0-5,1.1-5,7.4c0,0,0,1.2,0,1.9C127.1,357.6,123.1,360,119.4,360z"/>
		<path d="M156.1,360c-8.5,0-15.5-6.6-15.5-14.9c0-8.1,7-14.9,15.5-14.9c8.5,0,15.5,6.8,15.5,14.9C171.7,353.4,164.7,360,156.1,360z
			 M156.1,332.7c-7.6,0-10.4,6.9-10.4,12.5s2.8,12.5,10.4,12.5c7.6,0,10.4-6.9,10.4-12.5C166.4,339.6,163.6,332.7,156.1,332.7z"/>
		<path d="M178.3,332.7v-1.3h14.6v1.3c-4.3,0-5,1.1-5,7.4v9.2c0,6.4,0.8,7.4,5,7.4h2.3c5.8,0,6.6-1.1,7.4-4.1l0.3-1.3h1.3l-0.4,7.7
			h-25.5v-1.3c4.3,0,5-1.1,5-7.4V340C183.3,333.6,182.5,332.7,178.3,332.7z"/>
		<path d="M206.6,357.6c4.3,0,5-1.1,5-7.4V340c0-6.4-0.8-7.4-5-7.4v-1.3h13.6c10.9,0,15.5,6.2,15.5,13.8c0,7.6-4.8,13.8-15.5,13.8
			h-13.6V357.6z M220.2,333.6c-0.4,0-3.1,0-4.1,0v18.1c0,4.1,0.4,4.8,3.6,4.8h0.5c8.4,0,10.1-6.4,10.1-11.4
			C230.3,340.1,228.6,333.6,220.2,333.6z"/>
		<path d="M264.9,352.5l0.3-1.3h1.3l-0.5,7.7H242v-1.3c4.3,0,5-1.1,5-7.4v-10.2c0-6.4-0.8-7.4-5-7.4v-1.3h14.1h8.2l0.5,7.7h-1.3
			l-0.3-1.3c-0.7-2.9-1.6-4.1-7.3-4.1h-4.3v9.6h0.4c6.4,0,6.9-0.8,6.9-5h1.3v12.5H259c0-4.3-0.5-5-6.9-5h-0.4v3.7
			c0,6.4,0.8,7.4,5,7.4h0.8C263.3,356.6,264.1,355.5,264.9,352.5z"/>
		<path d="M272.3,332.7v-1.3h7.8l17,20.2v-11.4c0-6.4-0.8-7.4-5-7.4v-1.3h12.5v1.3c-4.3,0-5,1.1-5,7.4V360h-1.2l-18.6-22.3v12.5
			c0,6.4,0.8,7.4,5,7.4v1.3h-12.5v-1.3c4.3,0,5-1.1,5-7.4V340C277.4,333.6,276.7,332.7,272.3,332.7z"/>
		<path d="M341.6,360c-8.5,0-15.5-6.6-15.5-14.9c0-8.1,7-14.9,15.5-14.9s15.5,6.8,15.5,14.9C357.1,353.4,350.2,360,341.6,360z
			 M341.6,332.7c-7.6,0-10.4,6.9-10.4,12.5s2.8,12.5,10.4,12.5s10.4-6.9,10.4-12.5C351.9,339.6,349.1,332.7,341.6,332.7z"/>
		<path d="M374.3,360c-3.3,0-6-1.6-7.2-2.4c-0.4,0.4-1.1,1.3-1.2,2.4h-1.2v-11h1.3c0.5,5.4,4,8.5,8.8,8.5c2.8,0,4.9-1.6,4.9-4.3
			c0-2.3-1.7-4-5.2-5.7l-4.4-2.3c-3.1-1.6-5.3-4.3-5.3-7.8c0-4,3.3-7.3,8-7.3c2.7,0,4.8,0.9,6.1,1.9c0.3-0.4,0.8-0.9,0.9-2h1.3v10.8
			h-1.3c-0.4-3.9-2.1-8.4-6.6-8.4c-2.5,0-4.7,1.3-4.7,3.7c0,2.3,1.6,3.5,5.6,5.4l4.3,2.3c3.6,1.9,4.9,4.8,4.9,7.2
			C383.3,356.6,379.2,360,374.3,360z"/>
		<path d="M411.9,352.5l0.3-1.3h1.3l-0.5,7.7H389v-1.3c4.3,0,5-1.1,5-7.4v-10.2c0-6.4-0.8-7.4-5-7.4v-1.3h14.1h8.2l0.5,7.7h-1.3
			l-0.3-1.3c-0.7-2.9-1.6-4.1-7.3-4.1h-4.3v9.6h0.4c6.4,0,6.9-0.8,6.9-5h1.3v12.5H406c0-4.3-0.5-5-6.9-5h-0.4v3.7
			c0,6.4,0.8,7.4,5,7.4h0.8C410.3,356.6,411.1,355.5,411.9,352.5z"/>
		<path d="M425.4,333.8c-5.8,0-6.4,1.1-7.2,4.1l-0.3,1.3h-1.3l0.4-7.8h28.4l0.4,7.8h-1.3l-0.3-1.3c-0.8-3.1-1.6-4.1-7.4-4.1h-3.3
			v16.3c0,6.4,0.8,7.4,5,7.4v1.3H424v-1.3c4.3,0,5-1.1,5-7.4v-16.3H425.4z"/>
		<path d="M468.6,351.8c2.5,3.1,5.4,5.4,8.5,6v1.3H469l-8.6-11.8h-1.7v3.2c0,6.4,0.8,7.4,5,7.4v1.3h-14.6v-1.3c4.3,0,5-1.1,5-7.4
			v-10.2c0-6.4-0.8-7.4-5-7.4v-1.3h13.2c6.5,0,10.2,3.3,10.2,8c0,3.9-2.9,7-7.7,7.7L468.6,351.8z M462.2,333.6h-3.6v11.2h3.6
			c3.6,0,5.2-2.5,5.2-5.4C467.4,336.1,465.8,333.6,462.2,333.6z"/>
		<path d="M485.7,352.7c-1.6,3.7-1.6,4.8,3.5,4.8v1.3h-12.1v-1.3c3.9,0,4.5-0.8,6.5-5.6l9.4-21.8h0.9l9.4,21.8
			c2.1,4.8,2.9,5.6,6.2,5.6v1.3h-14.4v-1.3c4.7,0,5-1.1,3.5-4.8l-1.3-2.9h-10.5L485.7,352.7z M492.3,337.7l-4.3,9.7h8.4L492.3,337.7
			z"/>
		<path d="M261.2,383.8h3.9v5.6c3.6,0.7,6.8,2.8,8.9,5.8l-4.8,4.1c-0.9-1.6-2-3.2-4-3.7v13.2c5.4,3.5,10.4,7,10.4,14.2
			c0,6.4-3.6,11.8-10.4,12.4v7.4h-3.9v-7.4c-4.4-0.4-8-3.6-10.4-7.2l5.3-4c0.8,2.3,2.5,4.4,5,5v-15c-4.9-3.1-9.7-6.9-9.7-13.2
			c0-6,3.5-11,9.7-11.8v-5.4H261.2z M261.2,395.6c-2,0.7-3.2,2.5-3.2,4.8c0,2.8,1.2,4.7,3.2,6.4V395.6z M265,429.4
			c2.7-1.1,3.6-3.1,3.6-6c0-3.2-1.5-4.8-3.6-6.6V429.4z"/>
		<path d="M288.5,399h-6.2v-4.3c3.5-1.7,6.8-3.7,9.4-6h4v46.6h-7.2V399z"/>
		<path d="M315.7,422.2v3.2c0,2.9,1.2,4.7,3.6,4.7c2.3,0,3.7-1.6,3.7-5.4v-3.5c0-4.9-1.9-6.5-6.8-6.5v-6.2c4.7,0,6.4-1.6,6.4-7
			c0-4.4-0.8-6.1-3.2-6.1c-2.3,0-3.6,1.1-3.6,4.8v1.9h-7.2v-2.1c0-6.2,3.9-10.8,10.8-10.8c6.8,0,10.2,5.7,10.2,11.8
			c0,5.3-0.9,8.4-4.9,10.6c4.7,2.4,5.7,5.2,5.7,11.4c0,9.2-3.6,13.6-11.4,13.6c-6.5,0-10.5-3.3-10.5-11.2v-2.8h7.2V422.2z"/>
		<path d="M336.8,401.5c0-8.6,3.3-12.6,11.2-12.6c8,0,11.2,4,11.2,12.6v22.1c0,8.6-3.3,12.6-11.2,12.6c-8,0-11.2-4-11.2-12.6V401.5z
			 M351.8,399.5c0-3.1-1.3-4.4-3.7-4.4c-2.4,0-3.7,1.5-3.7,4.4v26c0,3.1,1.3,4.4,3.7,4.4c2.4,0,3.7-1.5,3.7-4.4V399.5z"/>
	</g>
	<g>
		<path d="M231,575.7c-8.5,0-15.5-6.6-15.5-14.9c0-8.1,7-14.9,15.5-14.9c8.5,0,15.5,6.8,15.5,14.9C246.7,569,239.6,575.7,231,575.7z
			 M231,548.3c-7.6,0-10.4,6.9-10.4,12.5s2.8,12.5,10.4,12.5c7.6,0,10.4-6.9,10.4-12.5C241.4,555.2,238.6,548.3,231,548.3z"/>
		<path d="M263.7,575.7c-3.3,0-6-1.6-7.2-2.4c-0.4,0.4-1.1,1.3-1.2,2.4h-1.2v-11h1.3c0.5,5.4,4,8.5,8.8,8.5c2.8,0,4.9-1.6,4.9-4.3
			c0-2.3-1.7-4-5.2-5.7l-4.4-2.3c-3.1-1.6-5.3-4.3-5.3-7.8c0-4,3.3-7.3,8-7.3c2.7,0,4.8,0.9,6.1,1.9c0.3-0.4,0.8-0.9,0.9-2h1.3v10.8
			h-1.3c-0.4-3.9-2.1-8.4-6.6-8.4c-2.5,0-4.7,1.3-4.7,3.7c0,2.3,1.6,3.5,5.6,5.4l4.3,2.3c3.6,1.9,4.9,4.8,4.9,7.2
			C272.7,572.2,268.6,575.7,263.7,575.7z"/>
		<path d="M301.3,568.1l0.3-1.3h1.3l-0.5,7.7h-23.9v-1.3c4.3,0,5-1.1,5-7.4v-10.2c0-6.4-0.8-7.4-5-7.4v-1.3h14.1h8.2l0.5,7.7H300
			l-0.3-1.3c-0.7-2.9-1.6-4.1-7.3-4.1h-4.3v9.6h0.4c6.4,0,6.9-0.8,6.9-5h1.3V566h-1.3c0-4.3-0.5-5-6.9-5h-0.4v3.7
			c0,6.4,0.8,7.4,5,7.4h0.8C299.7,572.2,300.6,571.2,301.3,568.1z"/>
		<path d="M314.9,549.5c-5.8,0-6.4,1.1-7.2,4.1l-0.3,1.3h-1.3l0.4-7.8h28.4l0.4,7.8H334l-0.3-1.3c-0.8-3.1-1.6-4.1-7.4-4.1H323v16.3
			c0,6.4,0.8,7.4,5,7.4v1.3h-14.6v-1.3c4.3,0,5-1.1,5-7.4v-16.3H314.9z"/>
		<path d="M358.2,567.4c2.5,3.1,5.4,5.4,8.5,6v1.3h-8.1l-8.6-11.8h-1.9v3.2c0,6.4,0.8,7.4,5,7.4v1.3h-14.6v-1.3c4.3,0,5-1.1,5-7.4
			v-10.2c0-6.4-0.8-7.4-5-7.4v-1.3h13.2c6.5,0,10.2,3.3,10.2,8c0,3.9-2.9,7-7.7,7.7L358.2,567.4z M351.7,549.2h-3.6v11.2h3.6
			c3.6,0,5.2-2.5,5.2-5.4C356.8,551.8,355.3,549.2,351.7,549.2z"/>
		<path d="M375.3,568.4c-1.6,3.7-1.6,4.8,3.5,4.8v1.3h-12.1v-1.3c3.9,0,4.5-0.8,6.5-5.6l9.4-21.8h0.9l9.4,21.8
			c2.1,4.8,2.9,5.6,6.2,5.6v1.3h-14.4v-1.3c4.7,0,5-1.1,3.5-4.8l-1.3-2.9h-10.5L375.3,568.4z M381.8,553.3l-4.3,9.7h8.4L381.8,553.3
			z"/>
		<path d="M261.2,599.5h3.9v5.6c3.6,0.7,6.8,2.8,8.9,5.8l-4.8,4.1c-0.9-1.6-2-3.2-4-3.7v13.2c5.4,3.5,10.4,7,10.4,14.2
			c0,6.4-3.6,11.8-10.4,12.4v7.4h-3.9v-7.3c-4.4-0.4-8-3.6-10.4-7.2l5.3-4c0.8,2.3,2.5,4.4,5,5v-15c-4.9-3.1-9.7-6.9-9.7-13.2
			c0-6,3.5-11,9.7-11.8v-5.6H261.2z M261.2,611.3c-2,0.7-3.2,2.5-3.2,4.8c0,2.8,1.2,4.7,3.2,6.4V611.3z M265,645
			c2.7-1.1,3.6-3.1,3.6-6c0-3.2-1.5-4.8-3.6-6.6V645z"/>
		<path d="M288.5,614.6h-6.2v-4.3c3.5-1.7,6.8-3.7,9.4-6h4v46.8h-7.2V614.6z"/>
		<path d="M308.5,617.1c0-8.6,3.3-12.6,11.2-12.6c8,0,11.2,4,11.2,12.6v22.1c0,8.6-3.3,12.6-11.2,12.6c-8,0-11.2-4-11.2-12.6V617.1z
			 M323.4,615.1c0-3.1-1.3-4.4-3.7-4.4c-2.4,0-3.7,1.5-3.7,4.4v26c0,3.1,1.3,4.4,3.7,4.4c2.4,0,3.7-1.5,3.7-4.4V615.1z"/>
		<path d="M336.8,617.1c0-8.6,3.3-12.6,11.2-12.6c8,0,11.2,4,11.2,12.6v22.1c0,8.6-3.3,12.6-11.2,12.6c-8,0-11.2-4-11.2-12.6V617.1z
			 M351.8,615.1c0-3.1-1.3-4.4-3.7-4.4c-2.4,0-3.7,1.5-3.7,4.4v26c0,3.1,1.3,4.4,3.7,4.4c2.4,0,3.7-1.5,3.7-4.4V615.1z"/>
	</g>
	<g>
		<path d="M186.6,791.3c-3.3,0-6-1.6-7.2-2.4c-0.4,0.4-1.1,1.3-1.2,2.4h-1.2v-11h1.3c0.5,5.4,4,8.5,8.8,8.5c2.8,0,4.9-1.6,4.9-4.3
			c0-2.3-1.7-4-5.2-5.7l-4.4-2.3c-3.1-1.6-5.3-4.3-5.3-7.8c0-4,3.3-7.3,8-7.3c2.7,0,4.8,0.9,6.1,1.9c0.3-0.4,0.8-0.9,0.9-2h1.3v10.8
			h-1.3c-0.4-3.9-2.1-8.4-6.6-8.4c-2.5,0-4.7,1.3-4.7,3.7c0,2.3,1.6,3.5,5.6,5.4l4.3,2.3c3.6,1.9,4.9,4.8,4.9,7.2
			C195.7,787.9,191.5,791.3,186.6,791.3z"/>
		<path d="M207.5,765.1c-5.8,0-6.4,1.1-7.2,4.1l-0.3,1.3h-1.3l0.4-7.8h28.4l0.4,7.8h-1.3l-0.3-1.3c-0.8-3.1-1.6-4.1-7.4-4.1h-3.3
			v16.3c0,6.4,0.8,7.4,5,7.4v1.3H206v-1.3c4.3,0,5-1.1,5-7.4v-16.3H207.5z"/>
		<path d="M247.1,788.4c4.5,0,7.8-2.5,7.8-8.1v-9c0-6.4-0.8-7.4-5-7.4v-1.3h13v1.3c-4.3,0-5,1.1-5,7.4v8.6c0,7.4-5.2,11.3-11.4,11.3
			s-11.3-3.9-11.3-11.3v-8.6c0-6.4-0.8-7.4-5-7.4v-1.3h14.6v1.3c-4.3,0-5,1.1-5,7.4v9C239.5,785.9,242.6,788.4,247.1,788.4z"/>
		<path d="M287.2,783.1c2.5,3.1,5.4,5.4,8.5,6v1.3h-8.1l-8.6-11.8h-1.7v3.2c0,6.4,0.8,7.4,5,7.4v1.3h-14.6v-1.3c4.3,0,5-1.1,5-7.4
			v-10.2c0-6.4-0.8-7.4-5-7.4v-1.3h13.2c6.5,0,10.2,3.3,10.2,8c0,3.9-2.9,7-7.7,7.7L287.2,783.1z M280.8,764.9h-3.6V776h3.6
			c3.6,0,5.2-2.5,5.2-5.4C286,767.4,284.4,764.9,280.8,764.9z"/>
		<path d="M313.7,791.3c-8,0-14.4-6.6-14.4-14.9c0-8.1,6.4-14.9,14.4-14.9c3.1,0,6.5,1.7,8.4,4.3c0.4-0.5,0.9-2.1,1.2-3.2h1.2v11
			h-1.3c-1.2-6-4.7-9.7-9.6-9.7c-7.2,0-9.4,7-9.4,12.5c0,5.4,2.3,12.5,9.4,12.5c3.2,0,8.1-2,8.1-5.4c0-2.5-2.4-3.9-5.4-3.9v-1.3
			h14.1v1.3c-4.3,0-5,1.1-5,7.4c0,0,0,1.2,0,1.9C321.4,788.9,317.4,791.3,313.7,791.3z"/>
		<path d="M356.8,783.7l0.3-1.3h1.3l-0.5,7.7H334v-1.3c4.3,0,5-1.1,5-7.4v-10.2c0-6.4-0.8-7.4-5-7.4v-1.3h14.1h8.2l0.5,7.7h-1.3
			l-0.3-1.3c-0.7-2.9-1.6-4.1-7.3-4.1h-4.3v9.6h0.4c6.4,0,6.9-0.8,6.9-5h1.3v12.5H351c0-4.3-0.5-5-6.9-5h-0.4v3.7
			c0,6.4,0.8,7.4,5,7.4h0.8C355.3,787.9,356.2,786.8,356.8,783.7z"/>
		<path d="M380.6,791.3c-8.5,0-15.5-6.6-15.5-14.9c0-8.1,7-14.9,15.5-14.9s15.5,6.8,15.5,14.9C396.3,784.7,389.3,791.3,380.6,791.3z
			 M380.6,763.9c-7.6,0-10.4,6.9-10.4,12.5s2.8,12.5,10.4,12.5S391,782,391,776.4S388.2,763.9,380.6,763.9z"/>
		<path d="M402.8,763.9v-1.3h7.8l17,20.2v-11.4c0-6.4-0.8-7.4-5-7.4v-1.3h12.5v1.3c-4.3,0-5,1.1-5,7.4v19.9h-1.2L410.3,769v12.5
			c0,6.4,0.8,7.4,5,7.4v1.3h-12.5v-1.3c4.3,0,5-1.1,5-7.4v-10.2C407.9,764.9,407.1,763.9,402.8,763.9z"/>
		<path d="M275.3,815.1h3.9v5.6c3.6,0.7,6.8,2.8,8.9,5.8l-4.8,4.1c-0.9-1.6-2-3.2-4-3.7v13.2c5.4,3.5,10.4,7,10.4,14.2
			c0,6.4-3.6,11.8-10.4,12.4v7.4h-3.9v-7.4c-4.4-0.4-8-3.6-10.4-7.2l5.3-4c0.8,2.3,2.5,4.4,5,5v-15c-4.9-3.1-9.7-6.9-9.7-13.2
			c0-6,3.5-11,9.7-11.8v-5.4H275.3z M275.3,826.9c-2,0.7-3.2,2.5-3.2,4.8c0,2.8,1.2,4.7,3.2,6.4V826.9z M279.1,860.7
			c2.7-1.1,3.6-3.1,3.6-6c0-3.2-1.5-4.8-3.6-6.6V860.7z"/>
		<path d="M294.9,827.2v-6.5h20.7v4.5l-9.4,41.6h-7.3l9.3-39.6H294.9z"/>
		<path d="M330,853.5v3.7c0,2.5,1.5,4,3.5,4c2.5,0,3.9-1.5,3.9-5.6v-10.5c0-3.1-1.6-4.3-3.3-4.3c-2.4,0-3.6,1.6-4.3,3.5h-6.1
			c0.3-7.2,0.5-12.8,0.5-23.7h19.1l-0.3,6.5h-12.2l-0.4,10l0.1,0.1c2-2.4,3.6-2.7,6.1-2.7c6.1,0,8.4,4.4,8.4,12.1v6.4
			c0,9.7-3.1,14.4-10.8,14.4c-6.4,0-11.3-2.8-11.3-10.5v-3.5L330,853.5L330,853.5z"/>
	</g>
</g>
</svg>
